<?xml version="1.0" encoding="iso-8859-1"?>
<!-- Generator: Adobe Illustrator 19.0.0, SVG Export Plug-In . SVG Version: 6.00 Build 0)  -->
<svg version="1.1" id="Capa_1" xmlns="http://www.w3.org/2000/svg" xmlns:xlink="http://www.w3.org/1999/xlink" x="0px" y="0px"
	 viewBox="0 0 480 480" style="enable-background:new 0 0 480 480;" xml:space="preserve">
<path style="fill:#4D8AD1;" d="M59.894,340.8l-4,29.6L59.894,340.8z"/>
<g>
	<path style="fill:#555555;" d="M351.894,464c0,4.8,3.2,8,8,8h32c4.8,0,8-3.2,8-8v-32h-48V464z"/>
	<path style="fill:#555555;" d="M47.894,464c0,4.8,3.2,8,8,8h32c4.8,0,8-3.2,8-8v-32h-48V464z"/>
</g>
<polygon style="fill:#D6D6D6;" points="135.894,400 135.894,368 59.894,340.8 55.894,370.4 54.294,384.8 "/>
<path style="fill:#4D8AD1;" d="M391.894,385.6l-80,14.4v-32l76-27.2l-4-28.8h-320l-4,28.8l76,27.2v32l-81.6-15.2l-6.4,47.2h352
	l-12-91.2 M167.894,368h112v32h-112V368z"/>
<rect x="167.894" y="368" style="fill:#D6D6D6;" width="112" height="32"/>
<g>
	<path style="fill:#4D8AD1;" d="M423.894,252c0-11.2-8.8-20-20-20h-20l-24,40h44C415.094,272,423.894,263.2,423.894,252z"/>
	<path style="fill:#4D8AD1;" d="M43.894,272h44l-24-40h-20c-11.2,0-20,8.8-20,20S32.694,272,43.894,272z"/>
</g>
<path style="fill:#808080;" d="M455.894,60c0-28.8-23.2-52-52-52h-24c-11.2,0-20,8.8-20,20s-8.8,20-20,20h-4c-17.6,0-32,14.4-32,32
	v32h-80c-17.6,0-32,14.4-32,32s-14.4,32-32,32s-32,14.4-32,32s14.4,32,32,32h80v16h64c0-40,32-72,72-72h20c20,0,36-16,36-36
	s-16-36-36-36h8C432.694,112,455.894,88.8,455.894,60z"/>
<polyline style="fill:#D6D6D6;" points="387.894,340.8 311.894,368 311.894,400 391.894,385.6 "/>
<path d="M119.894,208c0,22.4,17.6,40,40,40h32v-16h-32c-13.6,0-24-10.4-24-24s10.4-24,24-24c22.4,0,40-17.6,40-40
	c0-13.6,10.4-24,24-24h24v-16h-24c-22.4,0-40,17.6-40,40c0,13.6-10.4,24-24,24C137.494,168,119.894,185.6,119.894,208z"/>
<path d="M403.894,0h-28v16h28c24,0,44,20,44,44s-20,44-44,44h-28c-4.8,0-8,3.2-8,8s3.2,8,8,8h20c15.2,0,28,12.8,28,28
	s-12.8,28-28,28h-20c-44,0-80,36-80,80h16c0-35.2,28.8-64,64-64h20c24,0,44-20,44-44c0-12-4.8-24-13.6-32
	c31.2-12,45.6-47.2,33.6-77.6C451.094,15.2,428.694,0,403.894,0z"/>
<path d="M231.894,184v72h16v-72c0-13.6,10.4-24,24-24c22.4,0,40-17.6,40-40V80c0-13.6,10.4-24,24-24h48V40h-48
	c-22.4,0-40,17.6-40,40v40c0,13.6-10.4,24-24,24C249.494,144,231.894,161.6,231.894,184z"/>
<path d="M279.894,360h-112c-4.8,0-8,3.2-8,8v32c0,4.8,3.2,8,8,8h112c4.8,0,8-3.2,8-8v-32C287.894,363.2,284.694,360,279.894,360z
	 M271.894,392h-96v-16h96V392z"/>
<path d="M43.894,280h29.6l-16.8,28l0,0c-0.8,0.8-0.8,1.6-0.8,3.2l-4,28.8l0,0l-2.4,20l-9.6,71.2v0.8l0,0v32c0,8.8,7.2,16,16,16h32
	c8.8,0,16-7.2,16-16v-24h240v24c0,8.8,7.2,16,16,16h32c8.8,0,16-7.2,16-16v-32l0,0v-0.8l-16-120c0-0.8-0.8-2.4-0.8-3.2l0,0l-16.8-28
	h29.6c15.2,0,28-12.8,28-28s-12.8-28-28-28h-20c-3.2,0-5.6,1.6-7.2,4l-24,40c-1.6,2.4-1.6,5.6,0,8l0,0l0,0l16.8,28h-291.2l16.8-28
	l0,0l0,0c0.8-1.6,0.8-3.2,0.8-5.6l0,0l-16.8-95.2c-3.2-19.2,8-38.4,26.4-44.8l56.8-19.2l-4.8-15.2l-56.8,19.2
	c-26.4,8.8-42.4,35.2-37.6,63.2l9.6,52.8l-1.6-3.2c-1.6-2.4-4-4-7.2-4h-20c-15.2,0-28,12.8-28,28
	C15.894,267.2,28.694,280,43.894,280z M384.694,378.4l-64.8,12v-16.8l60.8-22.4L384.694,378.4z M309.494,360.8
	c-3.2,0.8-5.6,4-5.6,7.2v32c0,4.8,3.2,8,8,8c0.8,0,0.8,0,1.6,0l73.6-13.6l4,29.6h-334.4l4-29.6l73.6,13.6c0.8,0,0.8,0,1.6,0
	c4.8,0,8-3.2,8-8v-32c0-3.2-2.4-6.4-5.6-7.2l-69.6-25.6l2.4-15.2h306.4l2.4,15.2L309.494,360.8z M67.094,351.2l60.8,22.4v16.8
	l-64.8-12l3.2-24L67.094,351.2z M87.894,464h-32v-24h32V464z M359.894,464v-24h32v24H359.894z M388.694,240h15.2c6.4,0,12,5.6,12,12
	s-5.6,12-12,12h-29.6L388.694,240z M43.894,240h15.2l14.4,24h-29.6c-6.4,0-12-5.6-12-12S37.494,240,43.894,240z"/>
<rect x="111.894" y="280" width="40" height="16"/>
<rect x="175.894" y="280" width="160" height="16"/>
<g>
</g>
<g>
</g>
<g>
</g>
<g>
</g>
<g>
</g>
<g>
</g>
<g>
</g>
<g>
</g>
<g>
</g>
<g>
</g>
<g>
</g>
<g>
</g>
<g>
</g>
<g>
</g>
<g>
</g>
</svg>
