<?xml version="1.0"?>
<svg xmlns="http://www.w3.org/2000/svg" id="Layer_1" data-name="Layer 1" viewBox="0 0 512 512"
    width="512" height="512">
    <title>flat tire</title>
    <path
        d="M346.11,311.27,169.06,364.73,117.14,380.4l-22.52,6.8a25.378,25.378,0,0,1-31.63-16.95l-17.3-57.32A25.38,25.38,0,0,1,62.65,281.3l7.99-2.41L278.94,216l52.02-15.7,49.63-14.99,7.99-2.41a25.376,25.376,0,0,1,31.63,16.96l17.3,57.32a25.369,25.369,0,0,1-16.96,31.62l-22.52,6.8Zm22.76-36.24a27.189,27.189,0,1,0-33.86-18.18A27.176,27.176,0,0,0,368.87,275.03ZM129.6,347.27a27.191,27.191,0,1,0-33.87-18.18A27.184,27.184,0,0,0,129.6,347.27Z"
        style="fill:#e48e66" />
    <path
        d="M415.14,152.98a10.092,10.092,0,0,1-6.75,12.58l-34.5,10.42-1.07-1.5-.17-.56a30.3,30.3,0,0,1,20.24-37.76l6.07-1.83a10.092,10.092,0,0,1,12.58,6.75Z"
        style="fill:#6fe3ff" />
    <path
        d="M410.5,336.9a10.875,10.875,0,0,1-7.26,13.56l-31.11,9.39a10.878,10.878,0,0,1-13.55-7.27l-12.47-41.31,51.92-15.67Z"
        style="fill:#f8ec7d" />
    <path d="M387.02,241.15a27.164,27.164,0,1,1-33.86-18.18A27.176,27.176,0,0,1,387.02,241.15Z"
        style="fill:#6fe3ff" />
    <path
        d="M143.46,139.22,247.5,107.81l48.84-14.75a21.739,21.739,0,0,1,23.46,7.49l53.02,73.93.5,1.67.57-.17,6.7,9.33L330.96,200.3l-.21-.69-2.99-9.91a27.169,27.169,0,1,0-52.02,15.7l3.2,10.6L70.64,278.89l.41-11.48.13-.04-.11-.38,3.3-92.34a21.709,21.709,0,0,1,15.39-19.22Z"
        style="fill:#f8ec7d" />
    <path d="M330.75,199.61l.21.69L278.94,216l-3.2-10.6a27.169,27.169,0,1,1,52.02-15.7Z"
        style="fill:#6fe3ff" />
    <path
        d="M244.54,98.03l2.96,9.78L143.46,139.22l-2.95-9.78a21.751,21.751,0,0,1,14.52-27.11l62.42-18.84A21.738,21.738,0,0,1,244.54,98.03Z"
        style="fill:#6fe3ff" />
    <path
        d="M181.53,406.03a10.86,10.86,0,0,1-7.26,13.55l-31.11,9.4a10.878,10.878,0,0,1-13.55-7.27L117.14,380.4l51.92-15.67Z"
        style="fill:#f8ec7d" />
    <path d="M147.75,313.39a27.169,27.169,0,1,1-33.87-18.18A27.184,27.184,0,0,1,147.75,313.39Z"
        style="fill:#6fe3ff" />
    <path
        d="M71.07,266.99l-.02.42L36.11,277.96a10.092,10.092,0,0,1-12.58-6.75l-3.6-11.9a10.092,10.092,0,0,1,6.75-12.58l6.07-1.84a30.307,30.307,0,0,1,37.76,20.25Z"
        style="fill:#6fe3ff" />
    <path
        d="M111.854,288.509a34.191,34.191,0,1,0,42.6,22.859A34.218,34.218,0,0,0,111.854,288.509Zm15.7,52.059a20.189,20.189,0,1,1-5.874-39.516c8.671,0,16.318,5.64,19.318,14.361h0A20.366,20.366,0,0,1,127.556,340.568Z"
        style="fill:#63316d" />
    <path
        d="M351.137,216.269a34.194,34.194,0,1,0,42.584,22.856A34.216,34.216,0,0,0,351.137,216.269Zm27.5,42.277a19.877,19.877,0,0,1-11.862,9.782,20.181,20.181,0,0,1-11.609-38.656,19.1,19.1,0,0,1,5.658-.86c8.666,0,17.181,5.64,19.181,14.36v0C382,248.336,381.176,253.8,378.632,258.546Z"
        style="fill:#63316d" />
    <path
        d="M16.828,273.23A17.116,17.116,0,0,0,33.171,285.4a17.176,17.176,0,0,0,4.963-.737L48.257,281.6a32.426,32.426,0,0,0-9.268,33.349l17.3,57.32A32.369,32.369,0,0,0,96.644,393.9l15.818-4.775,10.448,34.611a17.883,17.883,0,0,0,22.275,11.944l31.1-9.4a17.86,17.86,0,0,0,11.945-22.277l-10.448-34.6L341.433,320l10.447,34.61a17.876,17.876,0,0,0,22.272,11.943l31.116-9.391A17.873,17.873,0,0,0,417.2,334.876l-10.446-34.6,15.817-4.776a32.368,32.368,0,0,0,21.639-40.343l-17.3-57.321a32.41,32.41,0,0,0-26.178-22.653l9.677-2.922a17.091,17.091,0,0,0,11.43-21.309l-3.6-11.894a17.112,17.112,0,0,0-21.3-11.431l-6.075,1.831a37.273,37.273,0,0,0-24.568,23.91l-40.808-56.9c-.05-.07-.1-.139-.155-.208a28.905,28.905,0,0,0-31.017-9.9L252.172,99.083l-.931-3.075a28.737,28.737,0,0,0-35.813-19.219l-62.421,18.84a28.782,28.782,0,0,0-19.2,35.832l.928,3.078-47,14.19a28.872,28.872,0,0,0-20.349,25.416c-.007.085-.011.17-.014.255l-2.521,70.439a37.3,37.3,0,0,0-34.134-6.648l-6.061,1.837a17.118,17.118,0,0,0-11.43,21.309Zm158,134.827a3.861,3.861,0,0,1-2.585,4.822l-31.1,9.4a3.887,3.887,0,0,1-4.832-2.59l-10.448-34.608,38.517-11.628ZM403.8,338.928a3.875,3.875,0,0,1-2.582,4.831l-31.105,9.388a3.888,3.888,0,0,1-4.832-2.59l-10.445-34.605,38.516-11.629Zm9.709-137.046,17.3,57.322A18.37,18.37,0,0,1,418.526,282.1L397.72,288.38a6.823,6.823,0,0,0-3.426,1.034l-48.476,14.635a6.831,6.831,0,0,0-3.46,1.045L168.739,357.511a6.8,6.8,0,0,0-3.405,1.028L116.839,373.18a6.818,6.818,0,0,0-3.442,1.039L92.6,380.5a18.4,18.4,0,0,1-22.907-12.271l-17.3-57.32A18.41,18.41,0,0,1,64.672,288l7.912-2.388.168-.051L280.963,222.7,382.53,192.036c.08-.023.159-.046.238-.071L390.6,189.6A18.4,18.4,0,0,1,413.509,201.882Zm-131.067,1.5a20.149,20.149,0,0,1,13.471-25.158,20.178,20.178,0,0,1,25.146,13.5l1.174,3.895-38.615,11.659ZM394.91,142.862l6.07-1.83a3.1,3.1,0,0,1,3.86,2.075l3.6,11.894a3.092,3.092,0,0,1-2.072,3.858l-27.915,8.431A23.336,23.336,0,0,1,394.91,142.862Zm-247.7-15.444a14.765,14.765,0,0,1,9.842-18.386l62.421-18.841a14.738,14.738,0,0,1,18.366,9.867l.93,3.071-90.631,27.364ZM91.782,162.131,298.361,99.762a14.825,14.825,0,0,1,15.834,4.985l52.254,72.861.165.55a6.938,6.938,0,0,0,2.263,3.376l-33.241,10.037-1.175-3.893a34.174,34.174,0,0,0-42.6-22.858,34.148,34.148,0,0,0-22.824,42.6l1.177,3.9L77.984,269.361l.016-.429a6.982,6.982,0,0,0,.094-2.614L81.36,175.04A14.8,14.8,0,0,1,91.782,162.131Zm-63.072,91.3,6.061-1.837a23.3,23.3,0,0,1,27.236,11.237L34.09,271.258a3.092,3.092,0,0,1-3.86-2.075l-3.6-11.893A3.1,3.1,0,0,1,28.71,253.429Z"
        style="fill:#000000" />
    <path
        d="M444.5,323.281a7,7,0,0,0,7,6.829l.174,0,41-1a7,7,0,0,0-.342-14l-41,1A7,7,0,0,0,444.5,323.281Z"
        style="fill:#63316d" />
    <path
        d="M398.283,374.216a7,7,0,0,0-5.677,8.11l7.5,42.5a7,7,0,0,0,13.788-2.432l-7.5-42.5A7,7,0,0,0,398.283,374.216Z"
        style="fill:#63316d" />
    <path d="M441.55,365.16a7,7,0,0,0,0,9.9l30,30a7,7,0,0,0,9.9-9.9l-30-30A7,7,0,0,0,441.55,365.16Z"
        style="fill:#63316d" />
</svg>
