<?xml version="1.0" encoding="iso-8859-1"?>
<!-- Generator: Adobe Illustrator 19.0.0, SVG Export Plug-In . SVG Version: 6.00 Build 0)  -->
<svg version="1.1" id="Capa_1" xmlns="http://www.w3.org/2000/svg" xmlns:xlink="http://www.w3.org/1999/xlink" x="0px" y="0px"
	 viewBox="0 0 480 480" style="enable-background:new 0 0 480 480;" xml:space="preserve">
<path style="fill:#4D8AD1;" d="M0,119.521h48l40,120h100c37.6,0,68,30.4,68,68v60H0V119.521z"/>
<g>
	<path style="fill:#D6D6D6;" d="M408,143.521l-23.2-8c-8.8,14.4-24,23.2-41.6,23.2c-1.6,0-3.2,0-4,0l-7.2,8.8
		c-13.6,15.2-31.2,26.4-50.4,31.2l-20.8,5.6c-8.8,2.4-14.4,11.2-12,20c2.4,8,9.6,13.6,18.4,12l64-8.8c24-3.2,46.4,13.6,49.6,37.6
		c0.8,4.8,0.8,10.4-0.8,15.2l-23.2,111.2c-2.4,10.4,4.8,21.6,15.2,24c10.4,2.4,20.8-4,23.2-14.4l28.8-113.6l7.2,109.6
		c0,10.4,8.8,18.4,19.2,18.4h0.8c11.2,0,20-8.8,20-20v-0.8l-5.6-114.4c-0.8-21.6-4.8-43.2-12-64l-13.6-40.8
		C435.2,160.321,423.2,148.321,408,143.521z"/>
	<path style="fill:#D6D6D6;" d="M385.6,136.321L385.6,136.321c13.6-23.2,5.6-52-16.8-65.6c-23.2-13.6-52-5.6-65.6,16.8
		c-13.6,23.2-5.6,52,16.8,65.6c6.4,4,12.8,5.6,20,6.4l0,0c1.6,0,3.2,0,4,0C360.8,159.521,376.8,150.721,385.6,136.321z"/>
</g>
<circle style="fill:#555555;" cx="144" cy="367.521" r="48"/>
<g>
	<polyline style="fill:#D6D6D6;" points="0,159.521 16,159.521 40,239.521 0,239.521 	"/>
	<rect x="216" y="287.521" style="fill:#D6D6D6;" width="40" height="32"/>
</g>
<path d="M411.2,136.321l-14.4-4.8c11.2-28.8-4-61.6-32.8-72c-28.8-11.2-61.6,4-72,32.8c-11.2,28.8,4,61.6,32.8,72h0.8
	c-12,13.6-28,23.2-44.8,27.2l-20.8,5.6c-12.8,3.2-21.6,16.8-18.4,29.6c3.2,12,15.2,20,27.2,18.4l64-8.8c20-3.2,38.4,11.2,40.8,30.4
	c0.8,4,0.8,8.8-0.8,12.8l-23.2,111.2c-3.2,15.2,6.4,29.6,21.6,32.8c14.4,3.2,29.6-5.6,32.8-20.8l16-63.2l4,57.6
	c0.8,15.2,13.6,26.4,28,26.4c15.2,0,28-12.8,28-28c0-0.8,0-0.8,0-1.6l-5.6-114.4c-0.8-22.4-5.6-44.8-12-66.4l-13.6-40.8
	C441.6,155.521,428,141.921,411.2,136.321z M304,111.521c0-22.4,17.6-40,40-40s40,17.6,40,40s-17.6,40-40,40
	S304,133.921,304,111.521z M463.2,394.721c0,3.2-0.8,6.4-3.2,8.8c-2.4,2.4-5.6,4-8.8,4c-6.4,0-11.2-4.8-12-11.2l-7.2-109.6
	c0-4.8-4-8-8.8-7.2c-3.2,0-6.4,2.4-7.2,6.4l-28,112.8c-1.6,6.4-8,10.4-14.4,8.8s-9.6-8-8.8-13.6l23.2-111.2c5.6-28-12-56-40-61.6
	c-5.6-1.6-12-1.6-18.4-0.8l-64,8.8c-4.8,0.8-8.8-2.4-9.6-7.2c-0.8-4,2.4-8.8,6.4-9.6l20.8-5.6c21.6-5.6,40.8-16.8,54.4-33.6l4.8-5.6
	h0.8c17.6,0,33.6-8,44.8-22.4l17.6,5.6c12.8,4,22.4,14.4,26.4,26.4l13.6,40.8c6.4,20,10.4,40.8,11.2,61.6L463.2,394.721z"/>
<path d="M144,423.521c28,0,51.2-20.8,55.2-48H256c4.8,0,8-3.2,8-8v-60c0-41.6-34.4-76-76-76h-81.6l115.2-122.4l-12-11.2
	l-118.4,126.4l-36-107.2c-0.8-3.2-4-5.6-7.2-5.6H0v16h42.4l38.4,114.4c0.8,3.2,4,5.6,7.2,5.6h100c22.4,0,42.4,12,52.8,32H216
	c-4.8,0-8,3.2-8,8v32c0,4.8,3.2,8,8,8h32v32h-48.8c-4-30.4-32.8-52-63.2-47.2c-24.8,3.2-44,23.2-47.2,47.2H0v16h88.8
	C92.8,402.721,116,423.521,144,423.521z M224,311.521v-16h22.4c0.8,4,1.6,8,1.6,12v4H224z M144,327.521c22.4,0,40,17.6,40,40
	s-17.6,40-40,40s-40-17.6-40-40S121.6,327.521,144,327.521z"/>
<path d="M46.4,244.321c1.6-2.4,1.6-4.8,1.6-7.2l-24-80c-1.6-3.2-4.8-5.6-8-5.6H0v16h10.4l19.2,64H0v16h40
	C42.4,247.521,44.8,246.721,46.4,244.321z"/>
<rect y="271.521" width="32" height="16"/>
<rect x="208" y="151.521" width="16" height="16"/>
<rect x="224" y="167.521" width="16" height="16"/>
<rect x="176" y="199.521" width="16" height="16"/>
<rect x="248" y="111.521" width="16" height="16"/>
<rect x="288" y="271.521" width="16" height="16"/>
<rect x="160" y="87.521" width="16" height="16"/>
<rect x="136" y="359.521" width="16" height="16"/>
<g>
</g>
<g>
</g>
<g>
</g>
<g>
</g>
<g>
</g>
<g>
</g>
<g>
</g>
<g>
</g>
<g>
</g>
<g>
</g>
<g>
</g>
<g>
</g>
<g>
</g>
<g>
</g>
<g>
</g>
</svg>
