<?xml version="1.0" encoding="iso-8859-1"?>
<!-- Generator: Adobe Illustrator 19.0.0, SVG Export Plug-In . SVG Version: 6.00 Build 0)  -->
<svg version="1.1" id="Capa_1" xmlns="http://www.w3.org/2000/svg" xmlns:xlink="http://www.w3.org/1999/xlink" x="0px" y="0px"
	 viewBox="0 0 464 464" style="enable-background:new 0 0 464 464;" xml:space="preserve">
<path style="fill:#8A8A8A;" d="M430.919,367.279C451.89,332.425,464,291.643,464,248c0-43.64-12.069-84.452-33.022-119.318
	c-19.613-32.637-47.021-60.045-79.659-79.659C316.452,28.07,275.64,16,232,16s-84.452,12.07-119.318,33.022
	c-32.638,19.614-60.046,47.022-79.659,79.659C12.069,163.548,0,204.36,0,248c0,43.643,12.114,84.422,33.084,119.277
	C41.93,381.979,52.318,395.649,64.091,408H60c-11.046,0-20,8.954-20,20c0,11.045,8.954,20,20,20h52h284c11.046,0,20-8.955,20-20
	c0-11.046-8.954-20-20-20h3.895C411.67,395.648,422.072,381.985,430.919,367.279z"/>
<path style="fill:#5599E8;" d="M399.566,408.359c0.112-0.117,0.217-0.242,0.329-0.359H396
	C397.222,408,398.405,408.149,399.566,408.359z"/>
<path style="fill:#314963;" d="M339.361,224h50.647c-4.029-26.711-14.612-51.209-30.132-71.875l-35.558,35.558
	c-6.021,6.021-7.339,15.04-4.016,22.88c0.057,0.134,0.113,0.269,0.17,0.403C323.713,218.708,330.967,224,339.361,224z"/>
<path style="fill:#D6D6D6;" d="M390.008,224h-50.647c-8.119,0-15.447-4.865-18.599-12.346l-0.46-1.091
	c-3.381-8.026-1.565-17.299,4.593-23.457l34.981-34.981c-9.109-12.129-19.871-22.891-32-32l-35.558,35.558
	c-6.021,6.021-15.04,7.339-22.879,4.015c-0.135-0.057-0.269-0.114-0.404-0.17C261.292,156.287,256,149.033,256,140.64V89.992
	C248.151,88.808,240.179,88,232,88s-16.151,0.808-24,1.992v50.647c0,8.119-4.865,15.447-12.346,18.599l-1.091,0.46
	c-8.026,3.381-17.299,1.565-23.457-4.593l-34.981-34.981c-12.129,9.109-22.891,19.871-32,32l35.558,35.558
	c6.021,6.021,7.339,15.04,4.015,22.879c-0.057,0.135-0.114,0.269-0.17,0.404C140.287,218.708,133.033,224,124.64,224H73.992
	C72.808,231.849,72,239.821,72,248c0,8.179,0.808,16.151,1.992,24h50.648c8.393,0,15.647,5.292,18.888,13.034
	c0.056,0.135,0.113,0.27,0.17,0.404c3.324,7.839,2.006,16.858-4.015,22.879l-35.558,35.558c9.109,12.129,19.871,22.892,32,32
	l35.559-35.559c6.021-6.021,15.04-7.339,22.88-4.015c0.135,0.057,0.269,0.114,0.404,0.17C202.709,339.713,208,346.967,208,355.36
	v50.648c7.849,1.184,15.821,1.992,24,1.992s16.151-0.808,24-1.992V355.36c0-8.393,5.291-15.647,13.033-18.888
	c0.135-0.056,0.27-0.113,0.404-0.17c7.839-3.324,16.859-2.006,22.88,4.015l35.559,35.559c12.129-9.108,22.891-19.871,32-32
	l-35.558-35.558c-5.809-5.809-7.522-14.557-4.332-22.128l0.487-1.155C323.8,277.136,331.536,272,340.107,272h49.901
	c1.184-7.849,1.992-15.821,1.992-24C392,239.821,391.192,231.849,390.008,224z"/>
<g>
	<path style="fill:#314963;" d="M124.639,272H73.992c4.029,26.711,14.612,51.209,30.132,71.875l35.558-35.558
		c6.021-6.021,7.34-15.041,4.016-22.88c-0.057-0.134-0.113-0.268-0.17-0.403C140.287,277.292,133.033,272,124.639,272z"/>
	<path style="fill:#314963;" d="M139.682,187.682l-35.558-35.558C88.604,172.791,78.021,197.289,73.992,224h50.647
		c8.393,0,15.648-5.292,18.889-13.035c0.056-0.135,0.113-0.269,0.17-0.403C147.022,202.723,145.703,193.703,139.682,187.682z"/>
	<path style="fill:#314963;" d="M208,140.639V89.992c-26.711,4.029-51.209,14.612-71.875,30.132l35.558,35.558
		c6.021,6.021,15.04,7.339,22.88,4.016c0.134-0.057,0.269-0.114,0.403-0.17C202.708,156.287,208,149.033,208,140.639z"/>
	<path style="fill:#314963;" d="M324.318,308.318l35.558,35.558c15.521-20.667,26.104-45.164,30.132-71.875h-50.647
		c-8.394,0-15.648,5.292-18.889,13.035c-0.056,0.134-0.113,0.269-0.17,0.403C316.978,293.277,318.297,302.297,324.318,308.318z"/>
	<path style="fill:#314963;" d="M171.683,340.317l-35.559,35.559c20.667,15.521,45.164,26.104,71.875,30.132V355.36
		c0-8.393-5.291-15.647-13.033-18.888c-0.135-0.056-0.269-0.113-0.404-0.17C186.723,332.978,177.704,334.296,171.683,340.317z"/>
	<path style="fill:#314963;" d="M292.318,155.682l35.558-35.558C307.209,104.604,282.711,94.021,256,89.992v50.647
		c0,8.393,5.292,15.648,13.035,18.889c0.135,0.056,0.269,0.113,0.403,0.17C277.277,163.022,286.297,161.703,292.318,155.682z"/>
	<path style="fill:#314963;" d="M256,355.36v50.648c26.711-4.029,51.209-14.611,71.875-30.132l-35.559-35.559
		c-6.021-6.021-15.04-7.339-22.88-4.015c-0.134,0.057-0.269,0.114-0.404,0.17C261.291,339.713,256,346.967,256,355.36z"/>
</g>
<path style="fill:#D6D6D6;" d="M232,184c-35.346,0-64,28.654-64,64s28.654,64,64,64s64-28.654,64-64S267.346,184,232,184z M232,264
	c-8.836,0-16-7.164-16-16c0-8.837,7.164-16,16-16s16,7.163,16,16C248,256.836,240.836,264,232,264z"/>
<g>
	<circle style="fill:#555555;" cx="232" cy="248" r="16"/>
	<path style="fill:#555555;" d="M24,256H8c-4.418,0-8-3.582-8-8v0c0-4.418,3.582-8,8-8h16c4.418,0,8,3.582,8,8v0
		C32,252.418,28.418,256,24,256z"/>
	<path style="fill:#555555;" d="M232,40L232,40c-4.419,0-8-3.582-8-8v-8c0-4.418,3.582-8,8-8h0c4.418,0,8,3.582,8,8v8
		C240,36.418,236.418,40,232,40z"/>
	<path style="fill:#555555;" d="M116.906,69.781l-7.125-10.688C107.33,55.418,108.324,50.451,112,48v0
		c3.676-2.451,8.643-1.457,11.094,2.219l7.125,10.688C132.67,64.582,131.676,69.549,128,72v0
		C124.324,74.451,119.357,73.457,116.906,69.781z"/>
	<path style="fill:#555555;" d="M44.906,146.219l-10.688-7.125c-3.676-2.451-4.67-7.418-2.219-11.094h0
		c2.451-3.676,7.418-4.67,11.094-2.219l10.688,7.125c3.676,2.451,4.67,7.418,2.219,11.094h0
		C53.549,147.676,48.582,148.669,44.906,146.219z"/>
	<path style="fill:#555555;" d="M32,368L32,368c-2.451-3.676-1.457-8.643,2.219-11.094l10.688-7.125
		C48.582,347.33,53.549,348.324,56,352h0c2.451,3.676,1.457,8.643-2.219,11.094l-10.688,7.125C39.418,372.669,34.451,371.676,32,368
		z"/>
	<path style="fill:#555555;" d="M336,72L336,72c-3.676-2.451-4.67-7.418-2.219-11.094l7.125-10.688
		c2.451-3.676,7.418-4.67,11.094-2.219v0c3.676,2.451,4.67,7.418,2.219,11.094l-7.125,10.688C344.643,73.457,339.676,74.451,336,72z
		"/>
	<path style="fill:#555555;" d="M456,256h-16c-4.418,0-8-3.582-8-8v0c0-4.418,3.582-8,8-8h16c4.418,0,8,3.582,8,8v0
		C464,252.418,460.418,256,456,256z"/>
	<path style="fill:#555555;" d="M408,144L408,144c-2.451-3.676-1.457-8.643,2.219-11.094l10.688-7.125
		c3.676-2.451,8.643-1.457,11.094,2.219l0,0c2.451,3.676,1.457,8.643-2.219,11.094l-10.688,7.125
		C415.418,148.669,410.451,147.676,408,144z"/>
	<path style="fill:#555555;" d="M420.906,370.219l-10.688-7.125c-3.676-2.451-4.67-7.418-2.219-11.094l0,0
		c2.451-3.676,7.418-4.67,11.094-2.219l10.688,7.125c3.676,2.451,4.67,7.418,2.219,11.094l0,0
		C429.549,371.676,424.582,372.669,420.906,370.219z"/>
	<path style="fill:#555555;" d="M392,416h-40c-4.418,0-8-3.582-8-8v0c0-4.418,3.582-8,8-8h40c4.418,0,8,3.582,8,8v0
		C400,412.418,396.418,416,392,416z"/>
	<path style="fill:#555555;" d="M80,416h-7.907c-4.418,0-8-3.582-8-8v0c0-4.418,3.582-8,8-8H80c4.418,0,8,3.582,8,8v0
		C88,412.418,84.418,416,80,416z"/>
	<path style="fill:#555555;" d="M232,320c-39.703,0-72-32.301-72-72s32.297-72,72-72s72,32.301,72,72S271.703,320,232,320z M232,192
		c-30.875,0-56,25.121-56,56s25.125,56,56,56s56-25.121,56-56S262.875,192,232,192z"/>
</g>
<path style="fill:#828282;" d="M75.928,432c-12.545,0-24.358-5.906-31.885-15.942h0c-2.449,3.266-3.974,7.263-4.041,11.642
	c-0.17,11.176,10.219,20.3,21.396,20.3H112l280.719,0c7.399,0,14.553-3.279,19.094-9.122c4.886-6.288,4.682-11.363,3.435-16.026
	l-5.781,3.468c-6.194,3.716-13.282,5.68-20.506,5.68H75.928z"/>
<g>
</g>
<g>
</g>
<g>
</g>
<g>
</g>
<g>
</g>
<g>
</g>
<g>
</g>
<g>
</g>
<g>
</g>
<g>
</g>
<g>
</g>
<g>
</g>
<g>
</g>
<g>
</g>
<g>
</g>
</svg>
