<?xml version="1.0" encoding="iso-8859-1"?>
<!-- Generator: Adobe Illustrator 19.0.0, SVG Export Plug-In . SVG Version: 6.00 Build 0)  -->
<svg version="1.1" id="Capa_1" xmlns="http://www.w3.org/2000/svg" xmlns:xlink="http://www.w3.org/1999/xlink" x="0px" y="0px"
	 viewBox="0 0 512 512" style="enable-background:new 0 0 512 512;" xml:space="preserve">
<path style="fill:#FFB125;" d="M80.436,116.965c-7.488-7.89-7.621-20.434-0.267-28.52c3.737-4.109,8.852-6.535,14.4-6.832
	c5.069-0.272,10.061,1.303,14.058,4.436l174.581,140.01c7.719,6.19,8.616,17.609,1.958,24.928l-23.502,25.837
	c-6.648,7.309-18.08,7.506-24.977,0.431L80.436,116.965z"/>
<path style="fill:#FFBF14;" d="M244.327,220.813c2.056-1.225,2.272-4.114,0.404-5.612L98.957,98.293
	c-0.934-0.715-2.091-1.108-3.265-1.108c-0.096,0-0.192,0.002-0.289,0.008c-1.445,0.078-2.722,0.683-3.694,1.751
	c-1.838,2.021-1.834,5.25-0.004,7.232l129.123,132.462c1.512,1.551,4.081,1.335,5.28-0.469
	C230.799,231.109,237.032,225.16,244.327,220.813z"/>
<path style="fill:#2C5871;" d="M232.3,338.846v-69.541c0-22.497,18.303-40.799,40.799-40.799c22.497,0,40.8,18.302,40.8,40.799
	v69.541H232.3z"/>
<path style="fill:#45748C;" d="M148.205,318.88l-0.704-1.627c-5.519-14.733-19.601-24.496-35.334-24.496H70.728
	c-15.733,0-29.815,9.763-35.334,24.496l-0.704,1.627H14.514c-3.977,0-7.201,3.224-7.201,7.201v46.726
	c0,0.801,0.049,1.601,0.147,2.397l0,0c0.891,6.149,6.168,10.878,12.564,10.878h460.187c13.185,0,23.874-10.689,23.874-23.874V318.88
	H148.205z"/>
<path style="fill:#3C6A7C;" d="M480.212,386.081c13.185,0,24.475-10.689,24.475-23.874V233.391c0-4.832-1.904-9.47-5.3-12.907
	l-52.311-52.957c-3.451-3.493-8.156-5.459-13.067-5.459h-94.2c-9.463,0-17.134,7.671-17.134,17.134v206.88h157.537V386.081z"/>
<path style="fill:#305B68;" d="M499.387,220.484l-52.311-52.957c-3.451-3.493-8.156-5.459-13.066-5.459h-44.204
	c4.91,0,9.616,1.966,13.067,5.459l52.311,52.957c3.396,3.438,5.3,8.075,5.3,12.907v128.816c0,13.185-11.29,23.874-24.475,23.874
	h44.204c13.186,0,24.475-10.689,24.475-23.874V233.391C504.687,228.559,502.783,223.921,499.387,220.484z"/>
<path style="fill:#2DE8E8;" d="M354.428,270.185v-69.603c0-4.189,3.396-7.585,7.585-7.585H425.1c2.028,0,3.971,0.812,5.396,2.255
	l40.248,40.745c1.402,1.42,2.189,3.335,2.189,5.331v28.858c0,4.189-3.396,7.585-7.585,7.585H362.014
	C357.824,277.77,354.428,274.374,354.428,270.185z"/>
<g>
	<circle style="fill:#1D4859;" cx="418.47" cy="380.64" r="49.781"/>
	<circle style="fill:#1D4859;" cx="90.96" cy="380.64" r="49.781"/>
</g>
<path style="fill:#193D4B;" d="M90.96,430.418c27.493,0,49.781-22.288,49.781-49.781c0-13.747-5.572-26.192-14.58-35.2
	L55.76,415.838C64.768,424.846,77.213,430.418,90.96,430.418z"/>
<circle style="fill:#E1EFFB;" cx="90.96" cy="380.64" r="22.945"/>
<circle style="fill:#FF901D;" cx="273.1" cy="268.45" r="15.228"/>
<path style="fill:#193D4B;" d="M418.474,430.418c27.493,0,49.781-22.288,49.781-49.781c0-13.747-5.572-26.192-14.581-35.201
	l-70.401,70.401C392.282,424.846,404.727,430.418,418.474,430.418z"/>
<circle style="fill:#E1EFFB;" cx="418.47" cy="380.64" r="22.945"/>
<path style="fill:#305B68;" d="M298.485,367.531h-68.406h-48.308h-18.879c-4.023,0-7.285-3.262-7.285-7.285v-13.542
	c0-4.023,3.261-7.285,7.285-7.285h135.593c4.023,0,7.285,3.261,7.285,7.285v13.542C305.77,364.269,302.508,367.531,298.485,367.531z
	"/>
<path d="M435.7,190.111c-2.781-2.814-6.643-4.427-10.598-4.427h-63.088c-8.215,0-14.898,6.683-14.898,14.898v69.603
	c0,8.215,6.683,14.898,14.898,14.898h103.335c8.215,0,14.899-6.683,14.899-14.898v-28.858c0-3.945-1.527-7.664-4.299-10.47
	L435.7,190.111z M465.621,270.185c0,0.15-0.122,0.272-0.272,0.272H362.013c-0.15,0-0.271-0.122-0.271-0.272v-69.603
	c0-0.15,0.122-0.272,0.271-0.272h63.088c0.072,0,0.143,0.03,0.193,0.08l40.248,40.745c0.05,0.051,0.078,0.119,0.078,0.191v28.859
	H465.621z"/>
<path d="M373.051,293.992h-18.622c-4.039,0-7.313,3.274-7.313,7.313s3.274,7.313,7.313,7.313h18.622
	c4.039,0,7.313-3.274,7.313-7.313C380.364,297.266,377.09,293.992,373.051,293.992z"/>
<path d="M273.101,245.906c-12.429,0-22.542,10.112-22.542,22.542c0,12.429,10.113,22.541,22.542,22.541s22.541-10.112,22.541-22.541
	C295.642,256.018,285.53,245.906,273.101,245.906z M273.101,276.362c-4.365,0-7.916-3.55-7.916-7.915
	c0-4.365,3.551-7.915,7.916-7.915c4.364,0,7.915,3.551,7.915,7.915C281.016,272.812,277.465,276.362,273.101,276.362z"/>
<path d="M504.59,215.345l-52.312-52.957c-4.791-4.851-11.45-7.634-18.27-7.634h-94.199c-13.48,0-24.447,10.967-24.447,24.447v67.129
	c-8.167-14.963-24.048-25.137-42.263-25.137c-26.529,0-48.112,21.583-48.112,48.112v42.262h-71.944
	c-7.31-15.755-23.331-26.123-40.876-26.123H70.728c-17.546,0-33.566,10.368-40.876,26.123H14.514C6.511,311.567,0,318.078,0,326.081
	v46.726c0,1.099,0.068,2.207,0.202,3.291c0.006,0.051,0.013,0.103,0.02,0.154c1.417,9.773,9.93,17.142,19.803,17.142H35.32
	c5.813,25.358,28.544,44.336,55.64,44.336c27.095,0,49.826-18.979,55.639-44.336h176.077h40.158
	c5.813,25.358,28.544,44.336,55.64,44.336c27.095,0,49.826-18.979,55.639-44.336h6.099c8.321,0,16.227-3.213,22.264-9.047
	c6.142-5.935,9.524-13.798,9.524-22.14V233.391C512,226.591,509.368,220.182,504.59,215.345z M239.614,269.305
	c0-18.464,15.021-33.486,33.486-33.486s33.487,15.022,33.487,33.486v42.262h-66.973L239.614,269.305L239.614,269.305z
	 M133.171,385.261c-2.313,21.249-20.358,37.843-42.211,37.843c-21.845,0-39.883-16.58-42.209-37.816l0,0
	c-0.172-1.573-0.259-3.138-0.259-4.652c0-23.417,19.051-42.468,42.468-42.468s42.468,19.051,42.468,42.468
	C133.427,382.133,133.34,383.688,133.171,385.261z M315.363,378.768h-167.34c-0.006-0.179-0.023-0.355-0.03-0.533
	c-0.02-0.474-0.05-0.946-0.081-1.418c-0.032-0.488-0.067-0.975-0.111-1.459c-0.043-0.467-0.095-0.931-0.15-1.394
	c-0.056-0.482-0.115-0.964-0.184-1.442c-0.065-0.457-0.139-0.912-0.215-1.366c-0.08-0.478-0.164-0.955-0.256-1.429
	c-0.087-0.448-0.181-0.893-0.279-1.337c-0.103-0.471-0.211-0.941-0.326-1.408c-0.108-0.439-0.223-0.875-0.341-1.31
	c-0.126-0.465-0.257-0.927-0.395-1.387c-0.128-0.428-0.262-0.853-0.399-1.276c-0.149-0.458-0.303-0.914-0.464-1.367
	c-0.147-0.416-0.299-0.829-0.455-1.24c-0.171-0.451-0.348-0.898-0.531-1.343c-0.166-0.405-0.336-0.807-0.511-1.207
	c-0.193-0.441-0.391-0.878-0.595-1.313c-0.184-0.394-0.372-0.786-0.565-1.175c-0.214-0.431-0.434-0.857-0.658-1.282
	c-0.202-0.382-0.406-0.763-0.616-1.14c-0.234-0.42-0.475-0.835-0.719-1.248c-0.219-0.37-0.439-0.739-0.666-1.104
	c-0.254-0.408-0.514-0.811-0.778-1.213c-0.235-0.358-0.471-0.714-0.714-1.066c-0.273-0.396-0.554-0.787-0.837-1.176
	c-0.25-0.344-0.502-0.688-0.76-1.027c-0.292-0.384-0.592-0.761-0.893-1.136c-0.265-0.33-0.53-0.66-0.802-0.984
	c-0.311-0.37-0.63-0.734-0.949-1.096c-0.279-0.316-0.558-0.633-0.845-0.943c-0.328-0.356-0.665-0.703-1.002-1.051
	c-0.293-0.302-0.586-0.605-0.886-0.9c-0.345-0.34-0.698-0.672-1.052-1.003c-0.307-0.288-0.613-0.577-0.926-0.858
	c-0.362-0.324-0.731-0.639-1.101-0.954c-0.319-0.272-0.637-0.546-0.963-0.811c-0.377-0.307-0.762-0.604-1.148-0.902
	c-0.332-0.257-0.663-0.516-1.001-0.766c-0.392-0.289-0.792-0.568-1.191-0.847c-0.344-0.241-0.686-0.485-1.036-0.719
	c-0.407-0.272-0.822-0.531-1.236-0.793c-0.355-0.224-0.707-0.452-1.067-0.668c-0.421-0.253-0.85-0.493-1.277-0.735
	c-0.365-0.207-0.728-0.418-1.098-0.617c-0.434-0.233-0.876-0.453-1.317-0.675c-0.375-0.189-0.747-0.384-1.128-0.565
	c-0.448-0.214-0.904-0.412-1.358-0.615c-0.384-0.171-0.764-0.348-1.152-0.51c-0.462-0.193-0.931-0.371-1.399-0.552
	c-0.391-0.152-0.778-0.31-1.172-0.453c-0.475-0.173-0.959-0.328-1.44-0.488c-0.397-0.132-0.79-0.272-1.19-0.395
	c-0.489-0.151-0.986-0.283-1.48-0.421c-0.401-0.112-0.799-0.232-1.204-0.336c-0.507-0.129-1.021-0.239-1.533-0.355
	c-0.401-0.091-0.798-0.19-1.202-0.272c-0.531-0.108-1.07-0.195-1.606-0.288c-0.393-0.068-0.782-0.147-1.177-0.206
	c-0.566-0.086-1.14-0.149-1.711-0.218c-0.373-0.045-0.742-0.102-1.116-0.139c-0.635-0.064-1.277-0.103-1.918-0.146
	c-0.318-0.021-0.632-0.055-0.951-0.071c-0.962-0.048-1.931-0.074-2.905-0.074s-1.943,0.025-2.905,0.074
	c-0.321,0.016-0.638,0.05-0.957,0.072c-0.638,0.043-1.278,0.082-1.911,0.146c-0.378,0.038-0.751,0.095-1.126,0.141
	c-0.568,0.069-1.138,0.131-1.701,0.217c-0.4,0.061-0.793,0.14-1.19,0.209c-0.532,0.092-1.065,0.178-1.592,0.285
	c-0.409,0.083-0.812,0.184-1.218,0.276c-0.506,0.115-1.015,0.223-1.516,0.351c-0.412,0.105-0.816,0.227-1.224,0.341
	c-0.488,0.136-0.977,0.267-1.46,0.415c-0.409,0.126-0.81,0.268-1.215,0.403c-0.472,0.158-0.947,0.31-1.414,0.479
	c-0.404,0.147-0.801,0.309-1.201,0.464c-0.458,0.178-0.917,0.351-1.369,0.541c-0.398,0.167-0.788,0.348-1.182,0.523
	c-0.444,0.198-0.889,0.392-1.327,0.601c-0.391,0.187-0.774,0.387-1.161,0.582c-0.429,0.217-0.86,0.43-1.282,0.658
	c-0.382,0.206-0.756,0.423-1.133,0.637c-0.416,0.236-0.833,0.469-1.242,0.715c-0.372,0.224-0.736,0.459-1.102,0.69
	c-0.401,0.254-0.804,0.506-1.199,0.769c-0.362,0.242-0.717,0.495-1.073,0.745c-0.386,0.271-0.774,0.54-1.153,0.82
	c-0.351,0.259-0.693,0.528-1.038,0.795c-0.372,0.288-0.744,0.575-1.109,0.872c-0.339,0.276-0.669,0.561-1.002,0.844
	c-0.356,0.304-0.713,0.607-1.062,0.92c-0.326,0.293-0.645,0.593-0.965,0.893c-0.34,0.319-0.68,0.638-1.012,0.965
	c-0.313,0.309-0.619,0.625-0.925,0.94c-0.323,0.334-0.646,0.667-0.962,1.009c-0.299,0.324-0.591,0.655-0.883,0.986
	c-0.307,0.348-0.613,0.696-0.911,1.051c-0.285,0.339-0.563,0.684-0.84,1.03c-0.288,0.36-0.575,0.721-0.855,1.088
	c-0.271,0.355-0.534,0.716-0.797,1.077c-0.27,0.372-0.538,0.745-0.799,1.123c-0.255,0.369-0.503,0.743-0.749,1.119
	c-0.251,0.383-0.5,0.768-0.743,1.158c-0.238,0.383-0.47,0.77-0.7,1.159c-0.233,0.394-0.462,0.79-0.685,1.191
	c-0.221,0.396-0.436,0.796-0.647,1.197c-0.213,0.405-0.423,0.812-0.627,1.222c-0.203,0.409-0.4,0.821-0.594,1.236
	c-0.193,0.414-0.382,0.83-0.566,1.249c-0.185,0.422-0.364,0.846-0.538,1.273c-0.173,0.423-0.341,0.848-0.504,1.275
	c-0.165,0.434-0.326,0.87-0.48,1.308c-0.152,0.43-0.298,0.862-0.44,1.297c-0.146,0.446-0.286,0.894-0.421,1.346
	c-0.13,0.436-0.254,0.875-0.375,1.316c-0.125,0.458-0.245,0.917-0.359,1.379c-0.109,0.443-0.211,0.888-0.309,1.335
	c-0.103,0.468-0.203,0.938-0.294,1.41c-0.087,0.449-0.166,0.9-0.242,1.352c-0.081,0.479-0.158,0.959-0.227,1.442
	c-0.065,0.453-0.12,0.908-0.174,1.364c-0.058,0.489-0.113,0.979-0.158,1.472c-0.042,0.458-0.074,0.918-0.105,1.378
	c-0.033,0.498-0.065,0.996-0.086,1.497c-0.007,0.168-0.023,0.334-0.029,0.503H20.024c-2.633,0-4.906-1.949-5.316-4.545
	c-0.054-0.466-0.082-0.942-0.082-1.416v-46.614h20.063c2.916,0,5.552-1.732,6.711-4.407l0.705-1.627
	c0.049-0.112,0.094-0.226,0.137-0.34c4.425-11.812,15.873-19.748,28.486-19.748h41.439c12.613,0,24.061,7.936,28.486,19.748
	c0.043,0.114,0.088,0.226,0.136,0.337l0.704,1.627c1.158,2.678,3.796,4.411,6.712,4.411H232.3h81.6h1.463V378.768z M460.681,385.288
	L460.681,385.288c-2.325,21.236-20.364,37.816-42.208,37.816c-21.854,0-39.899-16.595-42.212-37.843
	c-0.169-1.573-0.257-3.129-0.257-4.625c0-23.417,19.051-42.468,42.469-42.468c23.416,0,42.468,19.051,42.468,42.468
	C460.941,382.144,460.854,383.709,460.681,385.288z M497.374,362.207c0,8.977-7.86,16.561-17.162,16.561h-4.674
	c-0.006-0.179-0.023-0.355-0.03-0.533c-0.02-0.474-0.05-0.946-0.081-1.418c-0.032-0.488-0.067-0.975-0.111-1.459
	c-0.043-0.467-0.095-0.931-0.149-1.394c-0.056-0.482-0.115-0.964-0.184-1.442c-0.065-0.457-0.139-0.912-0.215-1.366
	c-0.08-0.478-0.164-0.955-0.256-1.429c-0.087-0.448-0.181-0.893-0.279-1.337c-0.103-0.471-0.211-0.941-0.326-1.408
	c-0.108-0.439-0.223-0.875-0.341-1.31c-0.126-0.465-0.257-0.927-0.395-1.387c-0.128-0.428-0.262-0.853-0.399-1.276
	c-0.149-0.458-0.303-0.914-0.464-1.367c-0.147-0.416-0.299-0.829-0.455-1.24c-0.171-0.451-0.348-0.898-0.531-1.343
	c-0.166-0.405-0.336-0.807-0.511-1.207c-0.193-0.441-0.391-0.878-0.595-1.313c-0.184-0.394-0.372-0.786-0.565-1.175
	c-0.214-0.431-0.434-0.857-0.658-1.282c-0.202-0.382-0.406-0.763-0.616-1.14c-0.234-0.42-0.475-0.835-0.719-1.248
	c-0.219-0.37-0.439-0.739-0.666-1.104c-0.254-0.408-0.514-0.811-0.778-1.213c-0.235-0.358-0.471-0.714-0.714-1.066
	c-0.273-0.396-0.554-0.787-0.837-1.176c-0.25-0.344-0.502-0.688-0.76-1.027c-0.292-0.384-0.592-0.761-0.893-1.136
	c-0.265-0.33-0.53-0.66-0.802-0.984c-0.311-0.37-0.629-0.734-0.949-1.096c-0.279-0.316-0.558-0.633-0.845-0.943
	c-0.329-0.356-0.665-0.703-1.002-1.051c-0.293-0.302-0.586-0.605-0.886-0.9c-0.345-0.34-0.698-0.672-1.052-1.003
	c-0.307-0.288-0.613-0.577-0.926-0.858c-0.362-0.324-0.731-0.639-1.101-0.954c-0.319-0.272-0.637-0.546-0.962-0.811
	c-0.377-0.307-0.763-0.604-1.148-0.902c-0.332-0.257-0.663-0.516-1.001-0.766c-0.392-0.289-0.792-0.568-1.191-0.847
	c-0.344-0.241-0.686-0.485-1.036-0.719c-0.407-0.272-0.822-0.531-1.236-0.793c-0.355-0.224-0.707-0.452-1.067-0.668
	c-0.421-0.253-0.85-0.493-1.277-0.735c-0.365-0.207-0.728-0.418-1.098-0.617c-0.434-0.233-0.876-0.453-1.317-0.675
	c-0.375-0.189-0.748-0.384-1.127-0.565c-0.448-0.214-0.904-0.412-1.358-0.615c-0.384-0.171-0.764-0.348-1.152-0.51
	c-0.462-0.193-0.931-0.371-1.399-0.552c-0.391-0.152-0.778-0.31-1.172-0.453c-0.475-0.173-0.959-0.328-1.44-0.488
	c-0.397-0.132-0.79-0.272-1.19-0.395c-0.489-0.151-0.986-0.283-1.48-0.421c-0.401-0.112-0.799-0.232-1.204-0.336
	c-0.507-0.129-1.021-0.239-1.533-0.355c-0.401-0.091-0.798-0.19-1.201-0.272c-0.531-0.108-1.07-0.195-1.606-0.288
	c-0.393-0.068-0.782-0.147-1.177-0.206c-0.566-0.086-1.14-0.149-1.711-0.218c-0.373-0.045-0.742-0.102-1.116-0.139
	c-0.635-0.064-1.277-0.103-1.918-0.146c-0.318-0.021-0.632-0.055-0.951-0.071c-0.962-0.048-1.931-0.074-2.905-0.074
	s-1.943,0.025-2.905,0.074c-0.319,0.016-0.633,0.05-0.95,0.071c-0.641,0.043-1.283,0.082-1.918,0.146
	c-0.375,0.038-0.743,0.094-1.116,0.139c-0.572,0.069-1.145,0.132-1.712,0.218c-0.395,0.06-0.783,0.138-1.175,0.206
	c-0.537,0.093-1.076,0.18-1.608,0.288c-0.403,0.082-0.799,0.182-1.2,0.272c-0.513,0.116-1.028,0.226-1.535,0.355
	c-0.405,0.103-0.803,0.224-1.204,0.336c-0.495,0.138-0.992,0.271-1.481,0.421c-0.401,0.124-0.794,0.263-1.191,0.395
	c-0.481,0.16-0.964,0.315-1.439,0.488c-0.395,0.144-0.783,0.302-1.174,0.454c-0.467,0.181-0.936,0.359-1.397,0.552
	c-0.388,0.163-0.768,0.339-1.151,0.51c-0.454,0.202-0.91,0.401-1.358,0.615c-0.38,0.181-0.752,0.376-1.127,0.565
	c-0.441,0.223-0.883,0.442-1.317,0.675c-0.37,0.199-0.733,0.41-1.098,0.617c-0.428,0.242-0.857,0.482-1.278,0.735
	c-0.36,0.216-0.712,0.444-1.066,0.668c-0.414,0.262-0.829,0.521-1.236,0.793c-0.349,0.234-0.691,0.478-1.036,0.719
	c-0.399,0.28-0.799,0.558-1.191,0.847c-0.338,0.25-0.668,0.509-1,0.766c-0.385,0.298-0.771,0.595-1.148,0.903
	c-0.325,0.265-0.642,0.538-0.961,0.81c-0.371,0.316-0.741,0.631-1.103,0.956c-0.313,0.28-0.618,0.568-0.924,0.856
	c-0.354,0.332-0.708,0.664-1.053,1.004c-0.3,0.296-0.592,0.598-0.885,0.9c-0.337,0.347-0.674,0.695-1.002,1.051
	c-0.286,0.31-0.565,0.626-0.845,0.943c-0.32,0.362-0.639,0.726-0.95,1.096c-0.272,0.324-0.537,0.653-0.802,0.983
	c-0.302,0.376-0.602,0.753-0.894,1.137c-0.258,0.339-0.509,0.682-0.76,1.026c-0.283,0.389-0.563,0.78-0.837,1.176
	c-0.242,0.351-0.478,0.707-0.713,1.064c-0.264,0.402-0.526,0.807-0.78,1.216c-0.226,0.364-0.446,0.731-0.664,1.1
	c-0.245,0.415-0.486,0.831-0.721,1.252c-0.21,0.376-0.413,0.755-0.614,1.136c-0.225,0.426-0.445,0.853-0.659,1.285
	c-0.193,0.389-0.38,0.78-0.564,1.174c-0.203,0.435-0.402,0.872-0.594,1.312c-0.175,0.401-0.345,0.804-0.511,1.209
	c-0.182,0.445-0.359,0.892-0.53,1.343c-0.156,0.411-0.308,0.825-0.455,1.24c-0.16,0.453-0.314,0.909-0.464,1.367
	c-0.138,0.423-0.271,0.848-0.399,1.275c-0.138,0.461-0.269,0.923-0.395,1.389c-0.118,0.434-0.232,0.869-0.34,1.307
	c-0.115,0.468-0.223,0.938-0.326,1.41c-0.097,0.444-0.192,0.888-0.279,1.336c-0.092,0.474-0.176,0.951-0.256,1.429
	c-0.076,0.454-0.15,0.908-0.215,1.366c-0.068,0.479-0.127,0.96-0.184,1.442c-0.054,0.464-0.107,0.927-0.15,1.394
	c-0.045,0.484-0.079,0.971-0.111,1.459c-0.031,0.472-0.061,0.943-0.081,1.418c-0.007,0.178-0.025,0.354-0.03,0.533h-31.421V318.88
	V179.201c0-5.415,4.405-9.82,9.82-9.82h94.199c2.936,0,5.802,1.197,7.864,3.285l52.312,52.957c2.057,2.083,3.19,4.841,3.19,7.768
	v128.816H497.374z"/>
<path d="M418.474,350.379c-16.684,0-30.258,13.574-30.258,30.258s13.574,30.258,30.258,30.258s30.257-13.574,30.257-30.258
	C448.731,363.952,435.158,350.379,418.474,350.379z M418.474,396.268c-8.62,0-15.632-7.012-15.632-15.632
	c0-8.619,7.012-15.631,15.632-15.631c8.619,0,15.631,7.012,15.631,15.631C434.105,389.256,427.092,396.268,418.474,396.268z"/>
<path d="M69.563,359.241c-11.797,11.798-11.797,30.993,0,42.791c5.899,5.899,13.647,8.848,21.397,8.848
	c7.748,0,15.497-2.949,21.396-8.848c11.797-11.798,11.797-30.993,0-42.791C100.556,347.443,81.36,347.445,69.563,359.241z
	 M102.012,391.69c-6.094,6.095-16.012,6.093-22.106,0c-6.095-6.095-6.095-16.012,0-22.107c3.047-3.047,7.05-4.571,11.053-4.571
	c4.002,0,8.005,1.524,11.053,4.571C108.108,375.678,108.108,385.595,102.012,391.69z"/>
<path d="M298.485,332.106H162.891c-8.049,0-14.598,6.548-14.598,14.598v13.542c0,8.049,6.548,14.598,14.598,14.598h19.347
	c4.039,0,7.313-3.274,7.313-7.313s-3.274-7.313-7.313-7.313l-19.319,0.029l-0.029-13.514l135.565-0.029l0.029,13.514H231.42
	c-4.039,0-7.313,3.274-7.313,7.313s3.274,7.313,7.313,7.313h67.066c8.049,0,14.598-6.548,14.598-14.598v-13.542
	C313.083,338.655,306.534,332.106,298.485,332.106z"/>
<path d="M268.598,204.969L113.138,80.293c-5.392-4.224-12.123-6.353-18.961-5.982c-7.483,0.401-14.379,3.673-19.419,9.214
	c-9.918,10.904-9.755,27.804,0.372,38.474c0.023,0.023,0.046,0.047,0.069,0.07l8.447,8.666v75.146c0,0.124-0.046,0.203-0.03,0.197
	c-14.416,3.542-24.209,16.894-23.287,31.749c0.956,15.398,13.287,27.729,28.684,28.684c0.662,0.041,1.321,0.062,1.977,0.062
	c7.841,0,15.229-2.917,20.982-8.324c6.15-5.779,9.676-13.931,9.676-22.366c0-4.039-3.274-7.313-7.313-7.313
	s-7.313,3.274-7.313,7.313c0,4.48-1.799,8.638-5.066,11.709c-3.264,3.067-7.555,4.604-12.036,4.322
	c-7.916-0.491-14.502-7.077-14.993-14.992c-0.483-7.789,4.639-14.788,12.18-16.64c6.574-1.614,11.165-7.536,11.165-14.401V145.74
	l111.917,114.81c1.433,1.47,3.334,2.208,5.237,2.208c1.84,0,3.682-0.69,5.104-2.076c2.892-2.82,2.951-7.449,0.131-10.342
	L85.71,111.899c-4.852-5.145-4.913-13.276-0.132-18.532c2.435-2.677,5.767-4.257,9.382-4.451c3.289-0.174,6.553,0.85,9.092,2.839
	L259.447,216.38c3.15,2.526,7.753,2.021,10.28-1.13C272.255,212.098,271.749,207.496,268.598,204.969z"/>
<g>
</g>
<g>
</g>
<g>
</g>
<g>
</g>
<g>
</g>
<g>
</g>
<g>
</g>
<g>
</g>
<g>
</g>
<g>
</g>
<g>
</g>
<g>
</g>
<g>
</g>
<g>
</g>
<g>
</g>
</svg>
