<svg id="Capa_1" enable-background="new 0 0 512 512" height="512" viewBox="0 0 512 512" width="512" xmlns="http://www.w3.org/2000/svg"><g><path d="m37.427 296.971h319.31v49.402h-292.258c-3.322 0-6.462-1.515-8.529-4.115l-16.155-20.316c-1.533-1.928-2.368-4.319-2.368-6.782z" fill="#8a94db"/><path d="m37.427 315.159c0 2.352.768 4.633 2.171 6.513h317.138v-24.701h-319.309z" fill="#717ed4"/><path d="m325.201 296.971h31.536v49.402h-31.536z" fill="#717ed4"/><path d="m285.829 190.863-47.414-40.671c-9.875-8.47-22.35-13.307-35.354-13.707l-15.464-.476c-49.264-1.515-97.047 16.959-132.478 51.221z" fill="#514898"/><path d="m77.222 240.367h227.269c3.121 0 6.052-1.501 7.876-4.035l10.63-14.764c3.064-4.256 2.193-10.177-1.968-13.37l-32.53-24.962c-7.421-5.694-16.651-8.512-25.986-7.932l-51.327 3.186c-4.437.275-8.89-.121-13.209-1.176l-45.852-11.203c-23.462-5.732-48.037-5.014-71.124 2.078l-34.72 10.665c-4.877 1.498-7.513 6.767-5.788 11.569l11.595 32.268c3.812 10.605 13.867 17.676 25.134 17.676z" fill="#e27f86"/><path d="m321.03 208.199-17.068-13.097c-12.402 2.051-21.447 8.421-21.447 15.965 0 9.202 13.453 16.662 30.047 16.662 2.149 0 4.243-.128 6.264-.365l4.172-5.794c3.064-4.257 2.193-10.178-1.968-13.371z" fill="#eec06b"/><g><ellipse cx="244.23" cy="240.965" fill="#d5d9f2" rx="23.918" ry="23.918" transform="matrix(.788 -.615 .615 .788 -96.567 201.336)"/></g><g><ellipse cx="116.277" cy="240.965" fill="#d5d9f2" rx="23.918" ry="23.918" transform="matrix(.788 -.615 .615 .788 -123.666 122.593)"/></g><path d="m7.5 269.884v22.087c0 2.761 2.239 5 5 5h344.237v-32.087h-344.237c-2.761 0-5 2.238-5 5z" fill="#d6e0f4"/><path d="m325.201 264.884h31.536v32.087h-31.536z" fill="#b8c9ea"/><circle cx="201.476" cy="349.337" fill="#d5d9f2" r="31.889"/><circle cx="111.578" cy="349.337" fill="#d5d9f2" r="31.889"/><path d="m438.633 150.82h-81.896v195.553h136.866c6.018 0 10.897-4.879 10.897-10.897v-81.781l-41.801-87.686c-4.423-9.28-13.787-15.189-24.066-15.189z" fill="#eec06b"/><path d="m498.986 242.127-30.193-63.336h-68.441c-3.04 0-5.505 2.465-5.505 5.505v6.171c0 12.349 6.982 23.635 18.031 29.149l38.245 19.084c4.517 2.254 9.496 3.427 14.545 3.427z" fill="#717ed4"/><path d="m472.76 346.372h20.843c6.018 0 10.897-4.879 10.897-10.897v-58.907h-24.719c-3.878 0-7.021 3.143-7.021 7.021z" fill="#514898"/><path d="m504.5 308.308h-31.74v-24.719c0-3.878 3.143-7.021 7.021-7.021h24.719z" fill="#e27f86"/><circle cx="414.749" cy="349.337" fill="#d5d9f2" r="31.889"/><path d="m511.27 250.462-41.798-87.678c-5.632-11.824-17.738-19.465-30.842-19.465h-17.86c-4.143 0-7.5 3.358-7.5 7.5s3.357 7.5 7.5 7.5h17.86c7.351 0 14.141 4.284 17.3 10.917l.979 2.054h-56.556c-7.172 0-13.006 5.834-13.006 13.005v6.171c0 15.292 8.5 29.032 22.183 35.86l38.246 19.084c5.527 2.758 11.715 4.216 17.893 4.216h28.587l2.745 5.759v13.682h-17.219c-8.007 0-14.521 6.514-14.521 14.521v55.281h-12.545c-4.597-16.653-19.871-28.922-37.966-28.922s-33.37 12.269-37.967 28.922h-12.544c0-32.754.002-161.45.002-180.551h21.529c4.143 0 7.5-3.358 7.5-7.5s-3.357-7.5-7.5-7.5h-21.53v-12.545c0-4.142-3.357-7.5-7.5-7.5s-7.5 3.358-7.5 7.5v20.045l-.001 106.564h-78.235c1.782-2.895 3.102-6.101 3.871-9.514h29.616c5.516 0 10.736-2.675 13.966-7.157l10.636-14.768c5.458-7.599 3.921-18.007-3.496-23.695l-32.526-24.958c-6.5-4.994-14.181-8.127-22.224-9.171l-27.543-23.626c-11.144-9.553-25.353-15.062-40.015-15.513l-15.457-.47c-40.713-1.246-81.462 10.922-114.824 34.287l-28.92 8.887c-4.271 1.307-7.871 4.349-9.875 8.346-2.005 3.999-2.29 8.708-.778 12.923l11.599 32.268c4.864 13.545 17.8 22.645 32.188 22.645h8.414c.769 3.413 2.088 6.619 3.87 9.514h-77.006c-6.893 0-12.5 5.607-12.5 12.5v22.087c0 6.893 5.607 12.5 12.5 12.5h17.43v10.689c0 4.137 1.415 8.199 3.99 11.448l16.162 20.322c3.51 4.411 8.758 6.94 14.398 6.94h7.978c2.256 19.591 18.935 34.855 39.12 34.855s36.863-15.265 39.12-34.855h11.658c2.256 19.591 18.935 34.855 39.121 34.855 20.185 0 36.863-15.265 39.12-34.855h45.414c4.143 0 7.5-3.358 7.5-7.5s-3.357-7.5-7.5-7.5h-46.567c-4.597-16.653-19.871-28.922-37.966-28.922s-33.37 12.269-37.967 28.922h-13.966c-4.597-16.653-19.871-28.922-37.966-28.922s-33.369 12.269-37.966 28.922h-9.133c-1.044 0-2.014-.467-2.66-1.279l-16.153-20.311c-.476-.6-.737-1.353-.737-2.121v-10.689h304.309v34.401l-28.229.001c-4.143 0-7.5 3.358-7.5 7.5s3.358 7.5 7.5 7.5c10.444 0 44.15-.002 54.619-.002 2.256 19.591 18.935 34.855 39.121 34.855 20.185 0 36.863-15.265 39.12-34.855 1.924 0-9.471 0 39.733.001 10.145 0 18.398-8.251 18.398-18.394v-58.909-22.874c-.001-1.117-.25-2.219-.731-3.228zm-108.923-59.995v-4.176h16.413v27.878l-2.533-1.264c-8.562-4.272-13.88-12.869-13.88-22.438zm63.321 44.16c-3.865 0-7.736-.912-11.195-2.638l-20.713-10.335v-35.363h30.3l23.043 48.336zm-264.191 90.321c13.448 0 24.389 10.941 24.389 24.389s-10.94 24.389-24.389 24.389-24.39-10.941-24.39-24.389 10.941-24.389 24.39-24.389zm-89.899 0c13.448 0 24.389 10.941 24.389 24.389s-10.94 24.389-24.389 24.389-24.389-10.941-24.389-24.389 10.941-24.389 24.389-24.389zm35.343-77.078h66.664c.769 3.413 2.088 6.619 3.87 9.514h-74.404c1.782-2.895 3.102-6.101 3.87-9.514zm80.891-6.905c0-9.053 7.365-16.418 16.418-16.418 9.054 0 16.419 7.365 16.419 16.418s-7.365 16.418-16.419 16.418c-9.053.001-16.418-7.364-16.418-16.418zm89.102-23.778-2.144 2.977c-.736.035-1.472.064-2.209.064-13.986 0-22.547-5.932-22.547-9.162 0-2.201 4.283-5.979 12.101-7.926l14.351 11.011c.951.729 1.144 2.066.448 3.036zm-129.542-73.681 15.457.47c11.25.346 22.156 4.575 30.708 11.906l14.896 12.778-37.715 2.344c-3.675.233-7.36-.098-10.959-.98l-45.851-11.201c-11.12-2.715-22.483-4.046-33.835-4.024 21.392-8.076 44.337-12.003 67.299-11.293zm-128.225 76.647-11.597-32.264c-.272-.763.134-1.616.934-1.86l30.067-9.24c.049-.015.097-.029.146-.045l4.505-1.385c21.789-6.69 45.008-7.369 67.149-1.964l45.842 11.198c5.07 1.244 10.274 1.71 15.464 1.382l51.311-3.189c1.362-.083 2.721-.074 4.069.019.073.007.146.009.219.014 6.038.458 11.84 2.653 16.68 6.371l4.277 3.281c-8.23 4.427-13.197 11.098-13.197 18.594 0 9.86 8.273 17.982 20.825 21.804h-21.254c-3.58-13.413-15.831-23.323-30.356-23.323s-26.775 9.91-30.355 23.323h-67.242c-3.58-13.413-15.83-23.323-30.355-23.323s-26.775 9.91-30.355 23.323h-8.704c-8.077.001-15.34-5.109-18.073-12.716zm40.712 20.812c0-9.053 7.365-16.418 16.418-16.418s16.418 7.365 16.418 16.418-7.365 16.418-16.418 16.418-16.418-7.364-16.418-16.418zm-84.859 48.506v-17.087h334.239v17.087c-23.402 0-318.806 0-334.239 0zm482-5.403v16.74h-16.74v-16.74zm-82.251 89.658c-13.448 0-24.39-10.941-24.39-24.389s10.941-24.389 24.39-24.389 24.389 10.941 24.389 24.389-10.941 24.389-24.389 24.389zm81.983-36.929c-.517 1.218-1.726 2.074-3.132 2.074h-13.341v-23.063h16.741v19.669c0 .468-.095.914-.268 1.32z"/></g></svg>