<svg id="Layer_1" height="512" viewBox="0 0 512 512" width="512" xmlns="http://www.w3.org/2000/svg" data-name="Layer 1"><path d="m481.33 267.47h18.31v21.03h-18.31z" fill="#0ff"/><path d="m491.81 328.87h.04v.02l-31.05 36.06-.09.01a48.542 48.542 0 0 0 -19.66-36.09z" fill="#58adf9"/><path d="m182.68 305.52v23.35h179.11l.01.01a48.375 48.375 0 0 1 28.88-9.51h21.51a48.351 48.351 0 0 1 28.86 9.5h50.8v-23.35z" fill="#b0b5ca"/><path d="m462.12 267.47a71.672 71.672 0 0 1 -47.3 17.86h-159.48a71.76 71.76 0 0 1 -52.01-22.36v42.55h278v-38.05z" fill="#6d7486"/><path d="m428.42 116.79a70.947 70.947 0 0 0 -13.6-1.31h-159.48a72.146 72.146 0 0 0 -71.94 71.93v25.98a72.145 72.145 0 0 0 71.94 71.94h159.48a71.672 71.672 0 0 0 47.3-17.86 71.822 71.822 0 0 0 24.64-54.08v-25.98a72.2 72.2 0 0 0 -58.34-70.62z" fill="#fb6771"/><path d="m161.78 192.69a18.691 18.691 0 0 0 -18.69-18.4h-77.61a18.789 18.789 0 0 0 -16.8 10.38c-1.7 3.39-3.7 7.44-5.86 11.93l-25 68.7v75.69l.01.14a7.022 7.022 0 0 1 1.38-.14h31.93s4.56-49.34 68.8-49.34h43.5z" fill="#668ad3"/><path d="m19.21 340.99a7.022 7.022 0 0 0 -1.38.14 6.873 6.873 0 0 0 -5.47 6.71v24.03a6.867 6.867 0 0 0 6.85 6.85h48.16v-10.73a48.361 48.361 0 0 1 8.18-27z" fill="#58adf9"/><path d="m182.68 328.87v15.89a48.614 48.614 0 0 0 -42.72-25.39h-23.98a48.561 48.561 0 0 0 -40.43 21.62h-24.41s4.56-49.34 68.8-49.34h43.5l19.24 13.87z" fill="#4e6cca"/><path d="m361.79 328.87h-179.11v15.89a48.419 48.419 0 0 1 5.9 23.23v10.73h153.49v-10.73a48.558 48.558 0 0 1 19.73-39.11z" fill="#58adf9"/><path d="m401 340.33a39.39 39.39 0 1 1 -39.39 39.39 39.387 39.387 0 0 1 39.39-39.39z" fill="#6d7486"/><path d="m129.26 340.33a39.39 39.39 0 1 1 -39.39 39.39 39.387 39.387 0 0 1 39.39-39.39z" fill="#6d7486"/><path d="m134.12 202.82v21.5a12.888 12.888 0 0 1 -9.55 12.44l-43.14 11.53-.06-.24v-51.45h46.54a6.212 6.212 0 0 1 6.21 6.22z" fill="#92dddb"/><path d="m81.37 248.05.06.24-63.61 17.01c0-14.1 14.38-46.61 25-68.7h38.55z" fill="#98eae8"/><path d="m83.64 153.42h56.48v20.87h-56.48z" fill="#43a2ff"/><path d="m329.27 115.23v.25h-67.95v-4.59a18.053 18.053 0 0 1 18-18h31.95a18.053 18.053 0 0 1 18 18z" fill="#f9ce8a"/><path d="m344.29 267.47h-71.86l-20 38.05h111.86z" fill="#ccd3df"/><path d="m315.61 378.72v10.5a12.035 12.035 0 0 1 -12 12h-76.66a12.035 12.035 0 0 1 -12-12v-32.46a12.035 12.035 0 0 1 12-12h76.66a12.035 12.035 0 0 1 12 12z" fill="#b0b5ca"/><path d="m401 370.41a9.31 9.31 0 1 1 -9.32 9.31 9.312 9.312 0 0 1 9.32-9.31z" fill="#fb6771"/><path d="m129.26 370.41a9.31 9.31 0 1 1 -9.32 9.31 9.312 9.312 0 0 1 9.32-9.31z" fill="#fb6771"/><path d="m213.4 213.39v-25.98a72.146 72.146 0 0 1 71.94-71.93h-30a72.146 72.146 0 0 0 -71.94 71.93v25.98a72.145 72.145 0 0 0 71.94 71.94h30a72.145 72.145 0 0 1 -71.94-71.94z" fill="#ffa1af"/><path d="m291.32 115.48v-4.59a18.053 18.053 0 0 1 18-18h-30a18.053 18.053 0 0 0 -18 18v4.59z" fill="#ffe8c2"/><path d="m78.68 184.67a18.789 18.789 0 0 1 16.8-10.38h-30a18.789 18.789 0 0 0 -16.8 10.38c-1.7 3.39-3.7 7.44-5.86 11.93h30c2.16-4.49 4.16-8.54 5.86-11.93z" fill="#94c0ff"/><path d="m47.82 340.99v-75.69a40.451 40.451 0 0 1 1.089-8.314l-31.089 8.314v75.69l.01.14a7.022 7.022 0 0 1 1.38-.14z" fill="#94c0ff"/><path d="m42.36 371.87v-24.03a6.873 6.873 0 0 1 5.47-6.71l-.01-.14h-28.61a7.022 7.022 0 0 0 -1.38.14 6.873 6.873 0 0 0 -5.47 6.71v24.03a6.867 6.867 0 0 0 6.85 6.85h30a6.867 6.867 0 0 1 -6.85-6.85z" fill="#71d4ff"/><path d="m72.82 196.6h-30c-10.62 22.09-25 54.6-25 68.7l31.089-8.314c3.538-16.186 15.035-41.923 23.911-60.386z" fill="#d9fffd"/><path d="m391.61 379.72a39.4 39.4 0 0 1 24.39-36.42 39.39 39.39 0 1 0 0 72.85 39.4 39.4 0 0 1 -24.39-36.43z" fill="#575f72"/><path d="m119.87 379.72a39.4 39.4 0 0 1 24.387-36.42 39.39 39.39 0 1 0 0 72.85 39.4 39.4 0 0 1 -24.387-36.43z" fill="#575f72"/><path d="m244.95 389.22v-32.46a12.035 12.035 0 0 1 12-12h-30a12.035 12.035 0 0 0 -12 12v32.46a12.035 12.035 0 0 0 12 12h30a12.035 12.035 0 0 1 -12-12z" fill="#ccd3df"/><path d="m83.64 153.42h30v20.87h-30z" fill="#71d4ff"/><g fill="#284268"><path d="m499.64 261.47h-23.592a77.75 77.75 0 0 0 16.712-48.08v-25.98a78.054 78.054 0 0 0 -58.34-75.393v-9.957a6 6 0 0 0 -12 0v7.8c-2.524-.249-5.063-.379-7.6-.379h-28.99v-7.42a6 6 0 0 0 -12 0v7.42h-38.6a24.028 24.028 0 0 0 -23.96-22.591h-31.95a24.028 24.028 0 0 0 -23.955 22.59h-.025a78.024 78.024 0 0 0 -77.94 77.93v25.98a77.482 77.482 0 0 0 19.93 51.9v34.23h-12.713l-15.228-10.978-1.61-95.946a24.818 24.818 0 0 0 -21.659-24.111v-15.065a6 6 0 0 0 -6-6h-56.48a6 6 0 0 0 -6 6v14.87h-12.16a24.642 24.642 0 0 0 -22.163 13.69c-1.988 3.963-3.974 8.007-5.905 12.021-16.982 35.322-25.592 59.31-25.592 71.299v72.048a12.887 12.887 0 0 0 -5.46 10.492v24.03a12.864 12.864 0 0 0 12.85 12.85h48.16a6 6 0 0 0 6-6v-10.73a42.609 42.609 0 0 1 42.61-42.62h23.98a42.6 42.6 0 0 1 42.62 42.62v10.73a6 6 0 0 0 6 6h20.37v4.5a18.021 18.021 0 0 0 18 18h76.66a18.021 18.021 0 0 0 18-18v-4.5h20.46a6 6 0 0 0 6-6v-10.73a42.612 42.612 0 0 1 42.61-42.62h21.51a42.629 42.629 0 0 1 42.531 39.95c.052.876.079 1.774.079 2.67v10.73a6 6 0 0 0 12 0v-10.73c0-.262-.02-.523-.023-.786l29.62-34.4a6.055 6.055 0 0 0 1.453-3.935v-23.349a6 6 0 0 0 -6-6h-4.52v-5.02h12.31a6 6 0 0 0 6-6v-21.03a6 6 0 0 0 -6-6zm-410-102.05h44.48v8.87h-44.48zm-43.04 43.18h28.77v41.1l-50.356 13.466c2.773-11.707 10.291-30.766 21.586-54.566zm14.77 165.39v4.73h-42.16a.872.872 0 0 1 -.85-.85v-24.03a.872.872 0 0 1 .644-.826 1.06 1.06 0 0 1 .206-.024h46.341a54.487 54.487 0 0 0 -4.181 21zm115.31-40.437a54.6 54.6 0 0 0 -36.72-14.183h-23.98a54.527 54.527 0 0 0 -43.519 21.62h-13.892c3.086-10.082 12.464-28.787 40.274-35.142a6 6 0 1 0 -2.673-11.7c-24.254 5.542-36.83 19.355-43.11 29.968a62.558 62.558 0 0 0 -6.893 16.872h-22.347v-65.082l102.31-27.353a18.934 18.934 0 0 0 8.454-4.882 18.71 18.71 0 0 0 5.536-13.351v-21.5a12.229 12.229 0 0 0 -12.21-12.22h-75.475c.537-1.084 1.073-2.172 1.612-3.247a12.712 12.712 0 0 1 11.433-7.063h77.61a12.75 12.75 0 0 1 12.691 12.5l1.557 92.859h-37.4a6 6 0 0 0 0 12h41.562l15.177 10.941zm-89.31-87.053v-37.9h40.54a.213.213 0 0 1 .21.22v21.5a6.8 6.8 0 0 1 -2.013 4.857 6.926 6.926 0 0 1 -3.086 1.786zm347.05-116a66.041 66.041 0 0 1 46.34 62.918v25.98a66.272 66.272 0 0 1 -46.34 62.929zm0 164.315a77.782 77.782 0 0 0 29.9-15.337h11.01v26.05h-40.91zm-48.59-167.335h28.99a65.454 65.454 0 0 1 7.6.462v8.008h-36.59zm0 20.47h36.59v9.37h-36.59zm0 21.37h36.59v9.36h-36.59zm0 21.36h36.59v9.37h-36.59zm0 21.37h36.59v9.37h-36.59zm0 21.37h36.59v9.37h-36.59zm0 21.37h36.59v9.27h-36.59zm0 21.27h36.59v8.808a65.414 65.414 0 0 1 -7.6.462h-28.99zm0 21.27h28.99c2.537 0 5.077-.13 7.6-.379v8.569h-36.59zm-106.51-192.44h31.95a12.013 12.013 0 0 1 11.91 10.59h-55.77a12.012 12.012 0 0 1 11.91-10.59zm-89.92 114.5v-25.98a66.01 66.01 0 0 1 65.94-65.93h118.49v157.85h-16.53l-7.7-14.652a6 6 0 0 0 -5.311-3.208h-8.623a6 6 0 1 0 0 12h5l13.692 26.05h-92l13.692-26.05h39.613a6 6 0 0 0 0-12h-43.233a6 6 0 0 0 -5.311 3.208l-7.7 14.652h-4.079a66.144 66.144 0 0 1 -65.94-65.94zm184.43 77.94v8.19h-5.916l-4.3-8.19zm-120.691-.055-4.334 8.245h-39.475v-23.312a76.877 76.877 0 0 0 43.809 15.067zm56.471 97.945a6.007 6.007 0 0 1 -6 6h-76.66a6.006 6.006 0 0 1 -6-6v-32.46a6.006 6.006 0 0 1 6-6h76.66a6.007 6.007 0 0 1 6 6zm26.46-21.23v4.73h-14.46v-15.96a18.02 18.02 0 0 0 -18-18h-76.66a18.02 18.02 0 0 0 -18 18v15.96h-14.37v-4.73a54.711 54.711 0 0 0 -5.9-24.651v-8.469h158.62a54.831 54.831 0 0 0 -11.23 33.12zm128.236-16.307a54.333 54.333 0 0 0 -8.694-16.813h23.171zm21.544-28.813h-42.889a54.123 54.123 0 0 0 -30.771-9.5h-21.51a54.135 54.135 0 0 0 -30.778 9.5h-171.222v-11.35h297.17zm7.79-40.37h-6.31v-9.03h6.31z"/><path d="m129.26 334.33a45.39 45.39 0 1 0 45.38 45.39 45.442 45.442 0 0 0 -45.38-45.39zm0 78.78a33.39 33.39 0 1 1 33.38-33.39 33.428 33.428 0 0 1 -33.38 33.39z"/><path d="m129.26 364.41a15.31 15.31 0 1 0 15.31 15.31 15.332 15.332 0 0 0 -15.31-15.31zm0 18.62a3.31 3.31 0 1 1 3.31-3.31 3.319 3.319 0 0 1 -3.31 3.31z"/><path d="m401 334.33a45.39 45.39 0 1 0 45.38 45.39 45.442 45.442 0 0 0 -45.38-45.39zm0 78.78a33.39 33.39 0 1 1 33.38-33.39 33.428 33.428 0 0 1 -33.38 33.39z"/><path d="m401 364.41a15.31 15.31 0 1 0 15.31 15.31 15.332 15.332 0 0 0 -15.31-15.31zm0 18.62a3.31 3.31 0 1 1 3.31-3.31 3.319 3.319 0 0 1 -3.31 3.31z"/></g></svg>